<?xml version="1.0" encoding="utf-8"?>
<!-- Generator: Adobe Illustrator 19.2.0, SVG Export Plug-In . SVG Version: 6.00 Build 0)  -->
<svg version="1.1" id="Layer_1" xmlns="http://www.w3.org/2000/svg" xmlns:xlink="http://www.w3.org/1999/xlink" x="0px" y="0px"
	 viewBox="0 0 500 300" style="enable-background:new 0 0 500 300;" xml:space="preserve">
<style type="text/css">
	.st0{fill:#005189;}
	.st1{fill:none;}
	.st2{enable-background:new    ;}
	.st3{fill:none;stroke:#005189;stroke-miterlimit:10;}
</style>
<g>
	<g>
		<g>
			<path class="st0" d="M208.3,94.3h41c2.3,0,4.2-1.9,4.2-4.2c0-2.3-1.9-4.2-4.2-4.2h-41c-8,0-14.4,6.5-14.4,14.4
				c0,8,6.5,14.4,14.4,14.4h41c2.3,0,4.2-1.9,4.2-4.2c0-2.3-1.9-4.2-4.2-4.2h-41c-3.3,0-5.6-2.7-5.6-6
				C202.7,96.9,205,94.3,208.3,94.3z"/>
			<path class="st0" d="M448.6,90c0-2.4-1.9-4.3-4.3-4.3c-0.6,0-1.1,0.1-1.6,0.3L414,96.4L385.5,86c-0.5-0.2-1-0.3-1.6-0.3
				c-2.4,0-4.3,1.9-4.3,4.3c0,1.8,1.1,3.3,2.6,3.9l27.7,10.1v6.3c0,2.4,1.8,4.3,4.2,4.3c2.4,0,4.3-1.9,4.3-4.3l-0.1-6.3L446,94
				C447.5,93.3,448.6,91.8,448.6,90z"/>
			<path class="st0" d="M314.6,96c0-5.6-4.6-10.2-10.2-10.2h-42.8c-2.2,0-4.2,1.8-4.2,3.6v20.9c0,2.4,1.8,4.3,4.1,4.3
				c2.4,0,4.3-1.9,4.3-4.3V108H303l4.8,5.1c0.8,0.9,1.9,1.5,3.2,1.5c2.4,0,4.3-1.9,4.3-4.3c0-1-0.4-2-1-2.7l-3.6-3.7
				C313.1,102.1,314.6,99.2,314.6,96z M303.9,99.6h-38.1v-5.3h38.1c1.5,0,2.7,1.2,2.7,2.7C306.6,98.4,305.4,99.6,303.9,99.6z"/>
			<path class="st0" d="M350.4,86.3l-30.1,20.8c-1,0.8-1.6,2-1.6,3.3c0,2.4,1.9,4.3,4.3,4.3c1,0,2-0.4,2.7-1l9.4-6.5h40.8l9.4,6.6
				c0.7,0.6,1.7,0.9,2.7,0.9c2.4,0,4.3-1.9,4.3-4.3c0-1.4-0.7-2.7-1.7-3.4l-29.9-20.8C358.6,84.7,353.7,84.2,350.4,86.3z
				 M344.3,100.6l9.1-6.3c1.2-0.8,2.5-1.1,3.9-0.1l9.3,6.4H344.3z"/>
		</g>
		<g>
			<path class="st0" d="M453.7,88.8c0.3-0.3,0.5-0.7,0.5-1.1s-0.2-0.8-0.5-1.1c-0.3-0.3-0.7-0.5-1.2-0.5c-0.2,0-0.4,0.1-0.7,0.2
				c-0.2,0.1-0.5,0.3-0.6,0.6c-0.2,0.3-0.2,0.5-0.2,0.9s0.2,0.8,0.5,1.1c0.3,0.3,0.7,0.5,1.1,0.5C453.1,89.3,453.4,89.1,453.7,88.8z
				 M451.3,87.7c0-0.3,0.1-0.6,0.4-0.9c0.2-0.3,0.6-0.4,1-0.4c0.2,0,0.4,0.1,0.6,0.2s0.4,0.3,0.5,0.5s0.2,0.4,0.2,0.7
				c0,0.4-0.1,0.7-0.4,0.9c-0.3,0.2-0.6,0.4-0.9,0.4c-0.4,0-0.7-0.1-0.9-0.4C451.5,88.4,451.3,88.1,451.3,87.7z"/>
			<path class="st0" d="M453,88.6h0.4l-0.2-0.3c-0.1-0.2-0.2-0.2-0.2-0.3c0,0-0.1-0.1-0.2-0.1c0.2,0,0.3-0.1,0.3-0.2
				c0.1-0.1,0.1-0.2,0.1-0.3c0-0.1,0-0.2-0.1-0.3c-0.1-0.1-0.2-0.1-0.4-0.1h-0.8v1.7h0.3V88h0.1c0.1,0,0.2,0,0.3,0.1
				c0.1,0.1,0.1,0.2,0.2,0.3L453,88.6z M452.5,87.6h-0.3v-0.5h0.3c0.1,0,0.2,0,0.3,0.1c0.1,0,0.1,0.1,0.1,0.2s0,0.1-0.1,0.2
				C452.8,87.6,452.7,87.6,452.5,87.6z"/>
		</g>
	</g>
</g>
<g>
	<rect x="27.3" y="131.1" class="st1" width="590.3" height="61.3"/>
	<g class="st2">
		<path class="st0" d="M217.3,151.2H242c0,4.1-0.1,7.1-0.2,8.8c-0.5,6-3.2,9.4-7.9,10.2c-2.3,0.4-7.3,0.6-14.9,0.6
			c-6.8,0-10.6,0-11.2-0.1c-5.1-0.4-8.5-1.5-10.3-3.5c-1.5-1.6-2.5-4.2-2.8-7.8c-0.1-1.2-0.2-4.1-0.2-8.6c0-4.4,0.1-7.3,0.2-8.5
			c0.4-3.6,1.3-6.2,2.8-7.8c1.8-2,5.5-3.2,11-3.5c0.4,0,4.3,0,11.9,0c4.9,0,7.9,0,8.9,0.1c4,0.3,6.8,1,8.5,2.2
			c2.4,1.7,3.7,4.9,3.9,9.6h-4.5c0-1.8-0.1-3.1-0.3-3.9c-0.2-0.7-0.5-1.4-1.1-1.9c-1.2-1.1-3.4-1.8-6.7-2c-0.1,0-2.5,0-7.2,0
			c-6.3,0-9.7,0-10.2,0c-5.3,0.2-8.6,0.8-9.9,1.7c-1.4,1-2.2,3.2-2.5,6.6c-0.1,0.9-0.1,3.4-0.1,7.4c0,3.6,0,5.9,0.1,7
			c0.2,3.3,0.8,5.4,1.8,6.5c1.2,1.3,3.7,2,7.7,2.3c0.8,0.1,3.6,0.1,8.3,0.1c6.7,0,10,0,9.6,0c4.8-0.2,7.8-1.1,9-2.5
			c0.9-1,1.4-2.5,1.7-4.4c0.1-0.6,0.1-2.2,0.2-4.9h-20.3V151.2z"/>
		<path class="st0" d="M251.3,170.4v-39h31.2c3.5,0,6.1,0.4,7.6,1.1c2,0.9,3.4,2.4,4.2,4.5c0.6,1.5,0.9,3.6,0.9,6.3
			c0,4.3-1,7.1-3,8.3c-1.1,0.6-2.9,1.1-5.5,1.4c3.7,0.4,6,1.6,7,3.5c0.5,1,0.7,2.2,0.7,3.8v10.1h-4.5V163c0-3.4-0.5-5.6-1.5-6.6
			c-1.1-1.1-3.3-1.7-6.6-1.7h-26v15.7H251.3z M255.8,151h24.9c3.5,0,6-0.4,7.2-1.2c1.7-1.1,2.5-3.3,2.5-6.7c0-3.4-0.9-5.7-2.8-6.7
			c-1.3-0.7-3.7-1.1-7.2-1.1h-24.7V151z"/>
		<path class="st0" d="M339.6,161.7h-31l-5,8.8h-5l22.3-39h6.5l22.3,39h-5.1L339.6,161.7z M337.5,158l-13.3-23.2L310.8,158H337.5z"
			/>
		<path class="st0" d="M353.8,170.4v-39h30.6c2.5,0,4.3,0.1,5.4,0.3c2.1,0.3,3.7,1.1,4.7,2.3c1.5,1.6,2.2,4.6,2.2,8.9
			c0,2.4-0.1,4.2-0.4,5.4c-0.4,2-1.3,3.5-2.6,4.6c-1.8,1.4-4.5,2.2-8.3,2.2h-27v15.3H353.8z M358.4,151.2H382c3.7,0,6.2-0.4,7.5-1.1
			c1.7-1,2.5-3.3,2.5-6.8c0-2.6-0.4-4.5-1.1-5.5c-1.1-1.6-3.8-2.4-8-2.4h-24.6V151.2z"/>
		<path class="st0" d="M404.7,170.4v-39h4.5v17h35.5v-17h4.5v39h-4.5v-18.2h-35.5v18.2H404.7z"/>
	</g>
</g>
<g>
	<path class="st0" d="M240.1,208.4v-24.1h23.4v2.4h-20.6v8h19.8v2.3h-19.8v8.9h20.7v2.4h-23.5V208.4z"/>
	<path class="st0" d="M268.9,208.4v-24.1h4.5l22.1,22.1v-22.1h2.8v24.1h-4.5l-22.1-22v22H268.9z"/>
	<path class="st0" d="M318.3,196.4h15.3c0,2.6-0.1,4.4-0.2,5.5c-0.3,3.7-2,5.8-4.9,6.3c-1.4,0.2-4.5,0.4-9.2,0.4c-4.2,0-6.6,0-7-0.1
		c-3.1-0.2-5.3-1-6.4-2.2c-0.9-1-1.5-2.6-1.8-4.8c-0.1-0.8-0.1-2.5-0.1-5.3s0-4.5,0.1-5.3c0.2-2.2,0.8-3.8,1.8-4.8
		c1.1-1.2,3.4-2,6.8-2.2c0.2,0,2.7,0,7.4,0c3,0,4.9,0,5.5,0.1c2.4,0.2,4.2,0.6,5.3,1.4c1.5,1,2.3,3,2.4,5.9h-2.8
		c0-1.1-0.1-1.9-0.2-2.4s-0.3-0.8-0.7-1.2c-0.7-0.7-2.1-1.1-4.1-1.3c-0.1,0-1.6,0-4.4,0c-3.9,0-6,0-6.3,0c-3.3,0.1-5.3,0.5-6.1,1.1
		c-0.8,0.6-1.4,2-1.6,4.1c-0.1,0.6-0.1,2.1-0.1,4.6c0,2.2,0,3.6,0.1,4.3c0.1,2,0.5,3.4,1.1,4c0.7,0.8,2.3,1.3,4.8,1.4
		c0.5,0,2.2,0.1,5.1,0.1c4.2,0,6.2,0,6,0c3-0.2,4.8-0.7,5.6-1.5c0.5-0.6,0.9-1.5,1-2.7c0-0.4,0.1-1.4,0.1-3h-12.6v-2.4H318.3z"/>
	<path class="st0" d="M339.3,208.4v-24.1h2.8v24.1H339.3z"/>
	<path class="st0" d="M348.7,208.4v-24.1h4.5l22.1,22.1v-22.1h2.8v24.1h-4.5l-22.1-22v22H348.7z"/>
	<path class="st0" d="M384.7,208.4v-24.1h23.4v2.4h-20.6v8h19.8v2.3h-19.8v8.9h20.7v2.4h-23.5V208.4z"/>
</g>
<ellipse transform="matrix(0.7699 -0.6381 0.6381 0.7699 -65.161 112.6635)" class="st0" cx="123.7" cy="146.7" rx="10.2" ry="10.2"/>
<ellipse transform="matrix(0.7699 -0.6381 0.6381 0.7699 4.4365 121.4025)" class="st0" cx="170.6" cy="54.5" rx="16.3" ry="16.3"/>
<ellipse transform="matrix(0.7699 -0.6381 0.6381 0.7699 -117.3143 117.9949)" class="st0" cx="105" cy="221.7" rx="12.3" ry="12.3"/>
<ellipse transform="matrix(0.7699 -0.6381 0.6381 0.7699 -94.4722 184.1739)" class="st0" cx="208.2" cy="223.1" rx="16.3" ry="16.3"/>
<ellipse transform="matrix(0.7699 -0.6381 0.6381 0.7699 -28.2848 89.5988)" class="st0" cx="110.1" cy="84" rx="15.9" ry="15.9"/>
<ellipse transform="matrix(0.7699 -0.6381 0.6381 0.7699 -99.122 63.6909)" class="st0" cx="38.8" cy="169.3" rx="10.2" ry="10.2"/>
<line class="st3" x1="120.2" y1="160.8" x2="109.1" y2="205"/>
<circle class="st3" cx="170.6" cy="54.5" r="21.6"/>
<circle class="st3" cx="208.2" cy="223.1" r="21.6"/>
<circle class="st3" cx="110.5" cy="84.2" r="21.2"/>
<circle class="st3" cx="104.7" cy="221.5" r="17"/>
<circle class="st3" cx="38.6" cy="169.1" r="14.5"/>
<circle class="st3" cx="123.7" cy="146.7" r="14.5"/>
<line class="st3" x1="53" y1="165.2" x2="109.9" y2="150.1"/>
<line class="st3" x1="114.5" y1="104.6" x2="120.5" y2="132.2"/>
<line class="st3" x1="130.2" y1="133.8" x2="160.9" y2="73.6"/>
<line class="st3" x1="135" y1="156.1" x2="193.9" y2="206.8"/>
</svg>
