<?xml version="1.0" encoding="utf-8"?>
<!-- Generator: Adobe Illustrator 15.0.0, SVG Export Plug-In . SVG Version: 6.00 Build 0)  -->
<!DOCTYPE svg PUBLIC "-//W3C//DTD SVG 1.1//EN" "http://www.w3.org/Graphics/SVG/1.1/DTD/svg11.dtd">
<svg version="1.1" id="Layer_1" xmlns="http://www.w3.org/2000/svg" xmlns:xlink="http://www.w3.org/1999/xlink" x="0px" y="0px"
	 width="513.921px" height="513.921px" viewBox="0 0 513.921 513.921" enable-background="new 0 0 513.921 513.921"
	 xml:space="preserve">
<path fill-rule="evenodd" clip-rule="evenodd" fill="#214D65" d="M9.428,395.038c0-3.312,0-6.626,0-9.938
	c3.2-29.114,34.311-40.668,65.588-29.813c34.35-23.948,70.199-46.4,101.364-73.536c-11.482-44.558,5.869-82.368,23.85-109.314
	c-17.236-12.712-25.631-45.899-49.688-53.663c-10.333-3.335-20.391,0.629-27.825-1.988c-11.265-3.965-21.597-15.287-23.851-27.825
	c-12.835-71.42,103.02-57.244,73.538,11.925c17.578,9.645,28.03,51.036,51.676,53.663c10.039,1.116,23.725-10.101,37.763-11.925
	c38.871-5.05,59.881,8.397,83.477,19.875c28.618-22.394,52.188-49.839,77.513-75.526c-22.381-71.54,88.167-75.826,75.525-7.95
	c-3.935,21.129-25.096,33.507-57.637,27.825c-13.829,10.928-24.105,24.104-37.765,37.764c-7.028,7.028-34.831,26.006-35.775,39.75
	c-0.906,13.211,15.644,30.807,17.889,47.7c6.306,47.452-15.604,71.429-37.763,103.349c13.427,20.363,29.317,38.258,45.712,55.651
	c68.145-11.598,64.519,70.36,23.851,77.515c-23.272,4.093-43.622-7.96-47.7-29.813c-2.153-11.536,4.04-22.58,1.987-31.801
	c-2.568-11.538-17.559-22.264-23.85-29.812c-8.762-10.516-14.259-21.133-25.838-29.813c-16.49,3.387-30.471,9.281-51.676,7.949
	c-6.554,14.22-14.568,21.355-13.913,33.789c0.778,14.778,14.926,22.469,13.913,39.751c-2.925,49.894-82.016,45.526-79.501-5.963
	c1.952-39.967,50.355-22.531,49.688-71.552c-5.881-10.3-17.025-11.02-27.825-19.875c-8.353-6.85-14.303-21.561-25.839-21.861
	c-11.814-0.308-36.838,22.656-49.688,31.798c-18.617,13.251-33.712,26.632-47.701,35.777
	C101.714,437.322,14.36,444.204,9.428,395.038z M214.143,249.95c1.077,44.674,45.105,78.255,93.414,57.638
	c68.076-29.054,32.075-127.902-31.802-123.225C237.587,187.157,213.159,209.2,214.143,249.95z"/>
</svg>
